<?xml version="1.0" encoding="utf-8"?>
<!-- Generator: Adobe Illustrator 25.0.0, SVG Export Plug-In . SVG Version: 6.00 Build 0)  -->
<svg version="1.1" id="Layer_1" xmlns="http://www.w3.org/2000/svg" xmlns:xlink="http://www.w3.org/1999/xlink" x="0px" y="0px"
	 viewBox="0 0 3147.1 2114" style="enable-background:new 0 0 3147.1 2114;" xml:space="preserve">
<style type="text/css">
	.st0{fill:#1F8DED;}
</style>
<path class="st0" d="M1175.2,1149.7V964.3c0-11.4,9.3-20.7,20.7-20.7s20.7,9.3,20.7,20.7v185.5c0,11.4-9.3,20.7-20.7,20.7
	C1185.1,1170.4,1175.2,1161.1,1175.2,1149.7z M1412,1157.6l-89.9-143.4v135.5c0,11.4-9.3,20.7-20.7,20.7c-11.4,0-20.7-9.3-20.7-20.7
	V970c0-15,12.1-27.8,27.8-27.8h1.4c9.3,0,18.5,5,23.5,12.8l89.2,141.2V962.8c0-11.4,9.3-20.7,20.7-20.7s20.7,9.3,20.7,20.7v179.8
	c0,15-12.1,27.8-27.8,27.8C1426.3,1170.4,1417,1166.1,1412,1157.6L1412,1157.6z M1608.2,982.1v169.8c0,10.7-8.6,19.3-19.3,19.3h-2.9
	c-10.7,0-19.3-8.6-19.3-19.3V982.1H1519c-10.7,0-19.3-8.6-19.3-19.3c0-10.7,8.6-19.3,19.3-19.3h137.7c10.7,0,19.3,8.6,19.3,19.3
	c0,10.7-8.6,19.3-19.3,19.3H1608.2z M1708.7,1151.9V961.4c0-10,8.6-18.5,18.5-18.5h124.8c10,0,18.5,8.6,18.5,18.5
	c0,10-8.6,18.5-18.5,18.5h-102v52.8h87.7c10,0,18.5,8.6,18.5,18.5s-8.6,18.5-18.5,18.5h-87.7v62.1h102c10,0,18.5,8.6,18.5,18.5
	s-8.6,18.5-18.5,18.5h-124.8C1717.3,1170.4,1708.7,1162.6,1708.7,1151.9L1708.7,1151.9z M2045.4,1158.3l-32.8-73.5H1962v65.6
	c0,11.4-9.3,20.7-20.7,20.7h-0.7c-11.4,0-20.7-9.3-20.7-20.7V964.3c0-11.4,9.3-20.7,20.7-20.7h75.6c54.2,0,79.2,34.2,79.2,70.6
	c0,30.7-16.4,54.2-41.4,63.5l28.5,64.2c5.7,13.6-3.6,28.5-18.5,28.5C2056.1,1170.4,2048.3,1166.1,2045.4,1158.3L2045.4,1158.3z
	 M2016.9,979.2h-54.2v67.8h54.9c23.5,0,37.1-12.1,37.1-33.5C2054,995.7,2040.4,979.2,2016.9,979.2L2016.9,979.2z M2292.2,1147.6
	c-17.1,17.1-40.7,27.1-64.9,27.1c-24.3,0-47.1-7.8-64.2-25.7c-25-25-28.5-54.9-28.5-92c0-37.1,3.6-67.8,28.5-92
	c17.1-17.1,39.9-25.7,64.2-25.7c24.3,0,47.8,9.3,64.9,26.4c5.7,6.4,10.7,12.8,14.3,20.7c6.4,13.6-3.6,28.5-18.5,28.5
	c-8.6,0-15.7-5-19.3-12.8c-1.4-4.3-4.3-7.8-7.1-11.4c-7.1-9.3-20-14.3-34.2-14.3c-12.8,0-25.7,5.7-35,15
	c-15.7,16.4-15.7,44.2-15.7,65.6c0,20.7,0,49.2,15.7,65.6c9.3,9.3,22.1,15,35,15c14.3,0,27.1-5,34.2-14.3c2.9-3.6,5.7-7.8,7.1-12.1
	c2.9-7.8,10.7-12.8,19.3-12.8c15,0,25,15,18.5,28.5C2302.9,1134.8,2297.9,1141.9,2292.2,1147.6z M2514.1,1149
	c-17.1,17.1-41.4,25.7-65.6,25.7c-24.3,0-47.8-8.6-65.6-25.7c-25-25-28.5-54.9-28.5-92c0-37.1,4.3-67.8,28.5-92
	c17.1-17.1,41.4-25.7,65.6-25.7c24.3,0,47.8,8.6,65.6,25.7c25,25,28.5,54.9,28.5,92C2543.3,1094.1,2539.1,1124.8,2514.1,1149z
	 M2484.8,992.1c-9.3-9.3-22.8-15-35.7-15s-27.1,5.7-35.7,15c-15.7,16.4-16.4,44.2-16.4,65.6c0,20.7,0.7,48.5,16.4,64.9
	c9.3,9.3,22.8,15,35.7,15s27.1-5.7,35.7-15c15.7-16.4,16.4-44.2,16.4-64.9C2501.2,1036.3,2500.5,1007.8,2484.8,992.1L2484.8,992.1z
	 M2783,1150.4v-142l-53.5,144.8c-2.9,8.6-11.4,14.3-20.7,14.3s-17.1-5.7-20.7-14.3l-53.5-146.9v144.1c0,11.4-9.3,20-20,20
	c-11.4,0-20-9.3-20-20V974.3c0-17.1,14.3-31.4,31.4-31.4h2.9c12.8,0,25,7.8,29.2,20.7l52.1,141.2l52.8-141.2
	c4.3-12.1,16.4-20.7,29.2-20.7c17.1,0,31.4,14.3,31.4,31.4v176.2c0,11.4-9.3,20-20,20C2791.6,1170.4,2783,1161.9,2783,1150.4
	L2783,1150.4z M886.3,736H404.8c-44.9,0-80.6,35.7-80.6,79.9v481.5c0,44.9,35.7,80.6,80.6,80.6h481.5c44.2,0,79.9-35.7,79.9-79.9
	V816.6C966.2,771.7,930.5,736,886.3,736z M730.8,853.7c0-12.1,9.3-21.4,21.4-21.4s21.4,9.3,21.4,21.4v286c0,12.1-9.3,21.4-21.4,21.4
	s-21.4-9.3-21.4-21.4V853.7z M623.8,843c0-12.1,9.3-21.4,21.4-21.4c12.1,0,21.4,9.3,21.4,21.4v310.3c0,12.1-9.3,21.4-21.4,21.4
	c-12.1,0-21.4-9.3-21.4-21.4V843z M516.8,853.7c0-12.1,9.3-21.4,21.4-21.4c12.1,0,21.4,9.3,21.4,21.4v286c0,12.1-9.3,21.4-21.4,21.4
	c-12.1,0-21.4-9.3-21.4-21.4V853.7z M409.8,896.5c0-12.1,9.3-21.4,21.4-21.4c12.1,0,21.4,9.3,21.4,21.4v192.6
	c0,12.1-9.3,21.4-21.4,21.4c-12.1,0-21.4-9.3-21.4-21.4V896.5z M873.4,1223.2c-3.6,2.9-82.7,69.2-228.3,69.2s-224.7-66.3-228.3-69.2
	c-9.3-7.8-10-21.4-2.1-30c7.8-9.3,21.4-10,30-2.1c1.4,0,72,58.5,200.4,58.5c129.8,0,199.7-58.5,199.7-59.2c9.3-7.8,22.8-6.4,30,2.1
	C883.4,1201.8,882,1215.4,873.4,1223.2L873.4,1223.2z M880.6,1089.1c0,12.1-9.3,21.4-21.4,21.4s-21.4-9.3-21.4-21.4V896.5
	c0-12.1,9.3-21.4,21.4-21.4s21.4,9.3,21.4,21.4V1089.1z"/>
</svg>
